<mxfile host="app.diagrams.net" modified="2023-11-15T14:50:39.775Z" agent="Mozilla/5.0 (X11; Linux x86_64) AppleWebKit/537.36 (KHTML, like Gecko) Chrome/119.0.0.0 Safari/537.36" etag="nHdIzBa4otG3VTeJ3Kjf" version="22.1.1" type="google">
  <diagram name="Page-1" id="g-9tJSa37795-fxpCL22">
    <mxGraphModel grid="1" page="1" gridSize="10" guides="1" tooltips="1" connect="1" arrows="1" fold="1" pageScale="1" pageWidth="827" pageHeight="1169" math="0" shadow="0">
      <root>
        <mxCell id="0" />
        <mxCell id="1" parent="0" />
        <mxCell id="PqrGDrNCjSLYeQYye7V4-1" style="edgeStyle=orthogonalEdgeStyle;rounded=0;orthogonalLoop=1;jettySize=auto;html=1;exitX=0.5;exitY=1;exitDx=0;exitDy=0;labelBackgroundColor=none;strokeColor=#788AA3;fontColor=default;" edge="1" parent="1">
          <mxGeometry relative="1" as="geometry">
            <mxPoint x="120" y="170" as="sourcePoint" />
            <mxPoint x="120" y="170" as="targetPoint" />
          </mxGeometry>
        </mxCell>
        <mxCell id="PqrGDrNCjSLYeQYye7V4-2" value="" style="whiteSpace=wrap;html=1;aspect=fixed;labelBackgroundColor=none;fillColor=#B2C9AB;strokeColor=#788AA3;fontColor=#46495D;" vertex="1" parent="1">
          <mxGeometry x="62.5" y="35" width="185" height="185" as="geometry" />
        </mxCell>
        <mxCell id="PqrGDrNCjSLYeQYye7V4-3" value="city_master" style="text;html=1;strokeColor=none;fillColor=none;align=center;verticalAlign=middle;whiteSpace=wrap;rounded=0;fontStyle=1;fontSize=15;labelBackgroundColor=none;fontColor=#46495D;" vertex="1" parent="1">
          <mxGeometry x="105" y="40" width="90" height="30" as="geometry" />
        </mxCell>
        <mxCell id="PqrGDrNCjSLYeQYye7V4-4" value="" style="whiteSpace=wrap;html=1;aspect=fixed;strokeColor=#788AA3;fontColor=#46495D;fillColor=#B2C9AB;labelBackgroundColor=none;" vertex="1" parent="1">
          <mxGeometry x="310" y="30" width="260" height="260" as="geometry" />
        </mxCell>
        <mxCell id="PqrGDrNCjSLYeQYye7V4-5" value="customer_station_mapping" style="text;html=1;strokeColor=none;fillColor=none;align=center;verticalAlign=middle;whiteSpace=wrap;rounded=0;fontColor=#46495D;fontSize=15;fontStyle=1;labelBackgroundColor=none;" vertex="1" parent="1">
          <mxGeometry x="370" y="40" width="160" height="30" as="geometry" />
        </mxCell>
        <mxCell id="PqrGDrNCjSLYeQYye7V4-6" value="&lt;div style=&quot;font-size: 14px;&quot;&gt;a.id int&lt;/div&gt;&lt;div style=&quot;font-size: 14px;&quot;&gt;b.user_id int&lt;span style=&quot;font-size: 14px;&quot;&gt;&lt;/span&gt;&lt;/div&gt;&lt;div style=&quot;font-size: 14px;&quot;&gt;&lt;span style=&quot;font-size: 14px;&quot;&gt;c.owner_station_mapping_id int&lt;/span&gt;&lt;/div&gt;&lt;div style=&quot;font-size: 14px;&quot;&gt;&lt;span style=&quot;font-size: 14px;&quot;&gt;d.razorpay_payment_id varchar(500)&lt;/span&gt;&lt;/div&gt;&lt;div style=&quot;font-size: 14px;&quot;&gt;&lt;span style=&quot;font-size: 14px;&quot;&gt;e.razorpay_order_id varchar(500)&lt;/span&gt;&lt;/div&gt;&lt;div style=&quot;font-size: 14px;&quot;&gt;&lt;span style=&quot;font-size: 14px;&quot;&gt;f.razorpay_signature varchar(1000)&lt;/span&gt;&lt;/div&gt;&lt;div style=&quot;font-size: 14px;&quot;&gt;&lt;span style=&quot;font-size: 14px;&quot;&gt;g.amount_paid varchar(45)&lt;/span&gt;&lt;/div&gt;&lt;div style=&quot;font-size: 14px;&quot;&gt;&lt;span style=&quot;font-size: 14px;&quot;&gt;h.currency varchar(45)&lt;/span&gt;&lt;/div&gt;&lt;div style=&quot;font-size: 14px;&quot;&gt;&lt;span style=&quot;font-size: 14px;&quot;&gt;i.created_date datetime&lt;/span&gt;&lt;/div&gt;" style="text;html=1;strokeColor=none;fillColor=none;align=left;verticalAlign=middle;whiteSpace=wrap;rounded=0;fontColor=#46495D;fontSize=14;labelBackgroundColor=none;" vertex="1" parent="1">
          <mxGeometry x="330" y="70" width="240" height="180" as="geometry" />
        </mxCell>
        <mxCell id="PqrGDrNCjSLYeQYye7V4-7" value="" style="whiteSpace=wrap;html=1;aspect=fixed;strokeColor=#788AA3;fontColor=#46495D;fillColor=#B2C9AB;" vertex="1" parent="1">
          <mxGeometry x="620" y="30" width="190" height="190" as="geometry" />
        </mxCell>
        <mxCell id="PqrGDrNCjSLYeQYye7V4-8" value="feedback" style="text;html=1;strokeColor=none;fillColor=none;align=center;verticalAlign=middle;whiteSpace=wrap;rounded=0;fontColor=#46495D;fontStyle=1;fontSize=15;" vertex="1" parent="1">
          <mxGeometry x="650" y="40" width="140" height="40" as="geometry" />
        </mxCell>
        <mxCell id="PqrGDrNCjSLYeQYye7V4-9" value="&lt;div style=&quot;font-size: 14px;&quot;&gt;a.id int&lt;/div&gt;&lt;div style=&quot;font-size: 14px;&quot;&gt;b.user_id int&lt;span style=&quot;font-size: 14px;&quot;&gt;&lt;/span&gt;&lt;/div&gt;&lt;div style=&quot;font-size: 14px;&quot;&gt;&lt;span style=&quot;font-size: 14px;&quot;&gt;c.feedback text&lt;/span&gt;&lt;/div&gt;&lt;span style=&quot;font-size: 14px;&quot;&gt;&lt;span style=&quot;background-color: initial; font-size: 14px;&quot;&gt;d.created_at varchar(45)&lt;/span&gt;&lt;/span&gt;" style="text;html=1;strokeColor=none;fillColor=none;align=left;verticalAlign=middle;whiteSpace=wrap;rounded=0;fontColor=#46495D;fontSize=14;" vertex="1" parent="1">
          <mxGeometry x="650" y="70" width="170" height="120" as="geometry" />
        </mxCell>
        <mxCell id="PqrGDrNCjSLYeQYye7V4-10" value="" style="whiteSpace=wrap;html=1;aspect=fixed;strokeColor=#788AA3;fontColor=#46495D;fillColor=#B2C9AB;" vertex="1" parent="1">
          <mxGeometry x="55" y="390" width="260" height="260" as="geometry" />
        </mxCell>
        <mxCell id="PqrGDrNCjSLYeQYye7V4-11" value="owner_station_mapping" style="text;html=1;strokeColor=none;fillColor=none;align=center;verticalAlign=middle;whiteSpace=wrap;rounded=0;fontColor=#46495D;fontStyle=1;fontSize=15;" vertex="1" parent="1">
          <mxGeometry x="187.5" y="370" width="2.5" height="80" as="geometry" />
        </mxCell>
        <mxCell id="PqrGDrNCjSLYeQYye7V4-12" value="&lt;div style=&quot;font-size: 15px;&quot;&gt;a.id int&lt;/div&gt;&lt;div style=&quot;font-size: 15px;&quot;&gt;b.name varchar(200)&lt;span style=&quot;font-size: 15px;&quot;&gt;&lt;/span&gt;&lt;/div&gt;&lt;div style=&quot;font-size: 15px;&quot;&gt;&lt;span style=&quot;font-size: 15px;&quot;&gt;c.state_id int&lt;/span&gt;&lt;/div&gt;&lt;span style=&quot;font-size: 15px;&quot;&gt;&lt;span style=&quot;background-color: initial; font-size: 15px;&quot;&gt;d.is_deleted int&lt;/span&gt;&lt;/span&gt;" style="text;html=1;strokeColor=none;fillColor=none;align=left;verticalAlign=middle;whiteSpace=wrap;rounded=0;fontColor=#46495D;fontSize=15;" vertex="1" parent="1">
          <mxGeometry x="80" y="80" width="150" height="70" as="geometry" />
        </mxCell>
        <mxCell id="PqrGDrNCjSLYeQYye7V4-13" value="&lt;div style=&quot;font-size: 14px;&quot;&gt;a.id int&lt;/div&gt;&lt;div style=&quot;font-size: 14px;&quot;&gt;b.owner_id int&lt;span style=&quot;font-size: 14px;&quot;&gt;&lt;/span&gt;&lt;/div&gt;&lt;div style=&quot;font-size: 14px;&quot;&gt;&lt;span style=&quot;font-size: 14px;&quot;&gt;c.station_name varchar(50)&lt;/span&gt;&lt;/div&gt;&lt;div style=&quot;font-size: 14px;&quot;&gt;&lt;span style=&quot;font-size: 14px;&quot;&gt;d.time_slot varchar(50)&lt;/span&gt;&lt;/div&gt;&lt;div style=&quot;font-size: 14px;&quot;&gt;&lt;span style=&quot;font-size: 14px;&quot;&gt;e.address text&lt;/span&gt;&lt;/div&gt;&lt;div style=&quot;font-size: 14px;&quot;&gt;&lt;span style=&quot;font-size: 14px;&quot;&gt;f.state_id int&lt;/span&gt;&lt;/div&gt;&lt;div style=&quot;font-size: 14px;&quot;&gt;&lt;span style=&quot;font-size: 14px;&quot;&gt;g.city_id int&lt;/span&gt;&lt;/div&gt;&lt;div style=&quot;font-size: 14px;&quot;&gt;&lt;span style=&quot;font-size: 14px;&quot;&gt;h.pincode varchar(45)&lt;/span&gt;&lt;/div&gt;&lt;div style=&quot;font-size: 14px;&quot;&gt;&lt;span style=&quot;font-size: 14px;&quot;&gt;i.date_slot varchar(50)&lt;/span&gt;&lt;/div&gt;&lt;div style=&quot;font-size: 14px;&quot;&gt;&lt;span style=&quot;font-size: 14px;&quot;&gt;j.cost_per_unit varchar(45)&lt;/span&gt;&lt;/div&gt;&lt;div style=&quot;font-size: 14px;&quot;&gt;&lt;span style=&quot;font-size: 14px;&quot;&gt;k.is_deleted int&lt;/span&gt;&lt;/div&gt;&lt;div style=&quot;font-size: 14px;&quot;&gt;&lt;br style=&quot;font-size: 14px;&quot;&gt;&lt;/div&gt;" style="text;html=1;strokeColor=none;fillColor=none;align=left;verticalAlign=middle;whiteSpace=wrap;rounded=0;fontColor=#46495D;fontSize=14;" vertex="1" parent="1">
          <mxGeometry x="90" y="460" width="190" height="150" as="geometry" />
        </mxCell>
        <mxCell id="PqrGDrNCjSLYeQYye7V4-14" value="" style="whiteSpace=wrap;html=1;aspect=fixed;strokeColor=#788AA3;fontColor=#46495D;fillColor=#B2C9AB;" vertex="1" parent="1">
          <mxGeometry x="430" y="390" width="240" height="240" as="geometry" />
        </mxCell>
        <mxCell id="PqrGDrNCjSLYeQYye7V4-15" value="payment_history" style="text;html=1;strokeColor=none;fillColor=none;align=center;verticalAlign=middle;whiteSpace=wrap;rounded=0;fontColor=#46495D;fontStyle=1;fontSize=15;" vertex="1" parent="1">
          <mxGeometry x="525" y="395" width="60" height="30" as="geometry" />
        </mxCell>
        <mxCell id="PqrGDrNCjSLYeQYye7V4-16" value="&lt;div style=&quot;font-size: 15px;&quot;&gt;&lt;br&gt;&lt;/div&gt;" style="text;html=1;strokeColor=none;fillColor=none;align=center;verticalAlign=middle;whiteSpace=wrap;rounded=0;fontColor=#46495D;" vertex="1" parent="1">
          <mxGeometry x="460" y="430" width="190" height="160" as="geometry" />
        </mxCell>
        <mxCell id="PqrGDrNCjSLYeQYye7V4-17" value="a.id int&#xa;b.customer_id varchar(45)&#xa;c.payment_gateway varchar(45)&#xa;d.transaction_id varchar(500)&#xa;e.status varchar(45)&#xa;f.amount varchar(45)&#xa;g.station_id int" style="text;whiteSpace=wrap;fontColor=#46495D;fontSize=14;" vertex="1" parent="1">
          <mxGeometry x="445" y="425" width="235" height="165" as="geometry" />
        </mxCell>
        <mxCell id="PqrGDrNCjSLYeQYye7V4-18" value="" style="whiteSpace=wrap;html=1;aspect=fixed;strokeColor=#788AA3;fontColor=#46495D;fillColor=#B2C9AB;" vertex="1" parent="1">
          <mxGeometry x="55" y="730" width="140" height="140" as="geometry" />
        </mxCell>
        <mxCell id="PqrGDrNCjSLYeQYye7V4-19" value="role_master" style="text;html=1;strokeColor=none;fillColor=none;align=center;verticalAlign=middle;whiteSpace=wrap;rounded=0;fontColor=#46495D;fontStyle=1;fontSize=15;" vertex="1" parent="1">
          <mxGeometry x="100" y="730" width="60" height="30" as="geometry" />
        </mxCell>
        <mxCell id="PqrGDrNCjSLYeQYye7V4-20" value="&lt;div style=&quot;font-size: 14px;&quot;&gt;a.id int&lt;/div&gt;&lt;div style=&quot;font-size: 14px;&quot;&gt;b.role varchar(45)&lt;span style=&quot;font-size: 14px;&quot;&gt;&lt;/span&gt;&lt;/div&gt;&lt;div style=&quot;font-size: 14px;&quot;&gt;&lt;span style=&quot;font-size: 14px;&quot;&gt;c.is_deleted int&lt;/span&gt;&lt;/div&gt;" style="text;html=1;strokeColor=none;fillColor=none;align=left;verticalAlign=middle;whiteSpace=wrap;rounded=0;fontColor=#46495D;fontSize=14;" vertex="1" parent="1">
          <mxGeometry x="70" y="760" width="120" height="60" as="geometry" />
        </mxCell>
        <mxCell id="PqrGDrNCjSLYeQYye7V4-21" value="" style="whiteSpace=wrap;html=1;aspect=fixed;strokeColor=#788AA3;fontColor=#46495D;fillColor=#B2C9AB;" vertex="1" parent="1">
          <mxGeometry x="280" y="730" width="150" height="150" as="geometry" />
        </mxCell>
        <mxCell id="PqrGDrNCjSLYeQYye7V4-22" value="&lt;b&gt;&lt;font style=&quot;font-size: 16px;&quot;&gt;state_master&lt;/font&gt;&lt;/b&gt;" style="text;html=1;strokeColor=none;fillColor=none;align=center;verticalAlign=middle;whiteSpace=wrap;rounded=0;fontColor=#46495D;" vertex="1" parent="1">
          <mxGeometry x="325" y="730" width="60" height="30" as="geometry" />
        </mxCell>
        <mxCell id="PqrGDrNCjSLYeQYye7V4-23" value="&lt;div style=&quot;text-align: left; font-size: 14px;&quot;&gt;&lt;font style=&quot;font-size: 14px;&quot;&gt;a.id int&lt;/font&gt;&lt;/div&gt;&lt;div style=&quot;font-size: 14px;&quot;&gt;&lt;font style=&quot;font-size: 14px;&quot;&gt;b.state varchar(50)&lt;span style=&quot;&quot;&gt;&lt;/span&gt;&lt;/font&gt;&lt;/div&gt;&lt;div style=&quot;text-align: left; font-size: 14px;&quot;&gt;&lt;font style=&quot;font-size: 14px;&quot;&gt;c.is_deleted in&lt;/font&gt;&lt;span style=&quot;font-size: 14px;&quot;&gt;t&lt;/span&gt;&lt;/div&gt;" style="text;html=1;strokeColor=none;fillColor=none;align=center;verticalAlign=middle;whiteSpace=wrap;rounded=0;fontColor=#46495D;" vertex="1" parent="1">
          <mxGeometry x="280" y="760" width="150" height="60" as="geometry" />
        </mxCell>
        <mxCell id="PqrGDrNCjSLYeQYye7V4-24" value="" style="whiteSpace=wrap;html=1;aspect=fixed;strokeColor=#788AA3;fontColor=#46495D;fillColor=#B2C9AB;" vertex="1" parent="1">
          <mxGeometry x="500" y="730" width="300" height="300" as="geometry" />
        </mxCell>
        <mxCell id="PqrGDrNCjSLYeQYye7V4-25" value="&lt;font style=&quot;font-size: 15px;&quot;&gt;&lt;b style=&quot;font-size: 15px;&quot;&gt;user&lt;/b&gt;&lt;/font&gt;" style="text;html=1;strokeColor=none;fillColor=none;align=center;verticalAlign=middle;whiteSpace=wrap;rounded=0;fontColor=#46495D;fontSize=15;" vertex="1" parent="1">
          <mxGeometry x="615" y="740" width="75" height="30" as="geometry" />
        </mxCell>
        <mxCell id="PqrGDrNCjSLYeQYye7V4-26" value="&lt;div style=&quot;font-size: 14px;&quot;&gt;&lt;span style=&quot;background-color: initial;&quot;&gt;&lt;font style=&quot;font-size: 14px;&quot;&gt;a.id int&lt;/font&gt;&lt;/span&gt;&lt;/div&gt;&lt;div style=&quot;font-size: 14px;&quot;&gt;&lt;span style=&quot;&quot;&gt;&lt;font style=&quot;font-size: 14px;&quot;&gt;b.first_name varchar(100)&lt;/font&gt;&lt;/span&gt;&lt;/div&gt;&lt;div style=&quot;font-size: 14px;&quot;&gt;&lt;span style=&quot;&quot;&gt;&lt;font style=&quot;font-size: 14px;&quot;&gt;c.last_name varchar(100)&lt;/font&gt;&lt;/span&gt;&lt;/div&gt;&lt;div style=&quot;font-size: 14px;&quot;&gt;&lt;span style=&quot;&quot;&gt;&lt;font style=&quot;font-size: 14px;&quot;&gt;d.email varchar(100)&lt;/font&gt;&lt;/span&gt;&lt;/div&gt;&lt;div style=&quot;font-size: 14px;&quot;&gt;&lt;span style=&quot;&quot;&gt;&lt;font style=&quot;font-size: 14px;&quot;&gt;e.password varchar(50)&lt;/font&gt;&lt;/span&gt;&lt;/div&gt;&lt;div style=&quot;font-size: 14px;&quot;&gt;&lt;span style=&quot;&quot;&gt;&lt;font style=&quot;font-size: 14px;&quot;&gt;f.phone varchar(45)&lt;/font&gt;&lt;/span&gt;&lt;/div&gt;&lt;div style=&quot;font-size: 14px;&quot;&gt;&lt;span style=&quot;&quot;&gt;&lt;font style=&quot;font-size: 14px;&quot;&gt;g.role_id int&lt;/font&gt;&lt;/span&gt;&lt;/div&gt;&lt;div style=&quot;font-size: 14px;&quot;&gt;&lt;span style=&quot;&quot;&gt;&lt;font style=&quot;font-size: 14px;&quot;&gt;h.is_deleted int&lt;/font&gt;&lt;/span&gt;&lt;/div&gt;&lt;div style=&quot;font-size: 14px;&quot;&gt;&lt;span style=&quot;&quot;&gt;&lt;font style=&quot;font-size: 14px;&quot;&gt;i.address text&lt;/font&gt;&lt;/span&gt;&lt;/div&gt;&lt;div style=&quot;font-size: 14px;&quot;&gt;&lt;span style=&quot;&quot;&gt;&lt;font style=&quot;font-size: 14px;&quot;&gt;j.pincode varchar(100)&lt;/font&gt;&lt;/span&gt;&lt;/div&gt;&lt;div style=&quot;font-size: 14px;&quot;&gt;&lt;span style=&quot;&quot;&gt;&lt;font style=&quot;font-size: 14px;&quot;&gt;k.city_id int&lt;/font&gt;&lt;/span&gt;&lt;/div&gt;&lt;div style=&quot;font-size: 14px;&quot;&gt;&lt;span style=&quot;&quot;&gt;&lt;font style=&quot;font-size: 14px;&quot;&gt;l.state_id int&lt;/font&gt;&lt;/span&gt;&lt;/div&gt;&lt;div style=&quot;font-size: 14px;&quot;&gt;&lt;span style=&quot;&quot;&gt;&lt;font style=&quot;font-size: 14px;&quot;&gt;m.created_at datetime&lt;/font&gt;&lt;/span&gt;&lt;/div&gt;&lt;div style=&quot;font-size: 14px;&quot;&gt;&lt;span style=&quot;&quot;&gt;&lt;font style=&quot;font-size: 14px;&quot;&gt;n.updated_at datetime&lt;/font&gt;&lt;/span&gt;&lt;/div&gt;&lt;div style=&quot;font-size: 14px;&quot;&gt;&lt;/div&gt;" style="text;html=1;strokeColor=none;fillColor=none;align=left;verticalAlign=middle;whiteSpace=wrap;rounded=0;fontColor=#46495D;" vertex="1" parent="1">
          <mxGeometry x="520" y="760" width="260" height="270" as="geometry" />
        </mxCell>
        <mxCell id="PqrGDrNCjSLYeQYye7V4-27" value="" style="endArrow=none;html=1;rounded=0;strokeColor=#000000;fontColor=#46495D;fillColor=#B2C9AB;entryX=0.5;entryY=1;entryDx=0;entryDy=0;exitX=0.714;exitY=-0.003;exitDx=0;exitDy=0;exitPerimeter=0;strokeWidth=2;" edge="1" parent="1" source="PqrGDrNCjSLYeQYye7V4-24" target="PqrGDrNCjSLYeQYye7V4-7">
          <mxGeometry width="50" height="50" relative="1" as="geometry">
            <mxPoint x="440" y="490" as="sourcePoint" />
            <mxPoint x="490" y="440" as="targetPoint" />
          </mxGeometry>
        </mxCell>
        <mxCell id="PqrGDrNCjSLYeQYye7V4-28" value="&lt;b&gt;1&lt;/b&gt;" style="text;html=1;strokeColor=none;fillColor=none;align=center;verticalAlign=middle;whiteSpace=wrap;rounded=0;fontColor=#46495D;" vertex="1" parent="1">
          <mxGeometry x="715" y="700" width="25" height="30" as="geometry" />
        </mxCell>
        <mxCell id="PqrGDrNCjSLYeQYye7V4-29" value="&lt;b&gt;1&lt;/b&gt;" style="text;html=1;strokeColor=none;fillColor=none;align=center;verticalAlign=middle;whiteSpace=wrap;rounded=0;fontColor=#46495D;" vertex="1" parent="1">
          <mxGeometry x="720" y="220" width="15" height="30" as="geometry" />
        </mxCell>
        <mxCell id="PqrGDrNCjSLYeQYye7V4-31" value="" style="endArrow=none;html=1;rounded=0;strokeColor=#000000;fontColor=#46495D;fillColor=#B2C9AB;exitX=0.002;exitY=0.495;exitDx=0;exitDy=0;exitPerimeter=0;strokeWidth=2;entryX=1;entryY=0.67;entryDx=0;entryDy=0;entryPerimeter=0;" edge="1" parent="1" source="PqrGDrNCjSLYeQYye7V4-4" target="PqrGDrNCjSLYeQYye7V4-2">
          <mxGeometry width="50" height="50" relative="1" as="geometry">
            <mxPoint x="310.00000000000006" y="159.08" as="sourcePoint" />
            <mxPoint x="250" y="159" as="targetPoint" />
          </mxGeometry>
        </mxCell>
        <mxCell id="PqrGDrNCjSLYeQYye7V4-32" value="" style="endArrow=none;html=1;rounded=0;strokeColor=#000000;fontColor=#46495D;fillColor=#B2C9AB;exitX=0;exitY=0.458;exitDx=0;exitDy=0;exitPerimeter=0;strokeWidth=2;" edge="1" parent="1">
          <mxGeometry width="50" height="50" relative="1" as="geometry">
            <mxPoint x="620" y="159.79" as="sourcePoint" />
            <mxPoint x="570" y="160" as="targetPoint" />
          </mxGeometry>
        </mxCell>
        <mxCell id="PqrGDrNCjSLYeQYye7V4-33" value="" style="endArrow=none;html=1;rounded=0;strokeColor=#000000;fontColor=#46495D;fillColor=#B2C9AB;entryX=0.525;entryY=1.001;entryDx=0;entryDy=0;strokeWidth=2;entryPerimeter=0;exitX=0.402;exitY=-0.002;exitDx=0;exitDy=0;exitPerimeter=0;" edge="1" parent="1" source="PqrGDrNCjSLYeQYye7V4-10" target="PqrGDrNCjSLYeQYye7V4-2">
          <mxGeometry width="50" height="50" relative="1" as="geometry">
            <mxPoint x="140" y="360" as="sourcePoint" />
            <mxPoint x="141" y="255.5" as="targetPoint" />
          </mxGeometry>
        </mxCell>
        <mxCell id="PqrGDrNCjSLYeQYye7V4-34" value="" style="endArrow=none;html=1;rounded=0;strokeColor=#000000;fontColor=#46495D;fillColor=#B2C9AB;entryX=0.288;entryY=0.998;entryDx=0;entryDy=0;strokeWidth=2;entryPerimeter=0;exitX=0.5;exitY=0;exitDx=0;exitDy=0;" edge="1" parent="1" source="PqrGDrNCjSLYeQYye7V4-19" target="PqrGDrNCjSLYeQYye7V4-10">
          <mxGeometry width="50" height="50" relative="1" as="geometry">
            <mxPoint x="129.85" y="829.5" as="sourcePoint" />
            <mxPoint x="129.85" y="660.5" as="targetPoint" />
          </mxGeometry>
        </mxCell>
        <mxCell id="PqrGDrNCjSLYeQYye7V4-37" value="" style="endArrow=none;html=1;rounded=0;strokeColor=#000000;fontColor=#46495D;fillColor=#B2C9AB;entryX=0.586;entryY=1.002;entryDx=0;entryDy=0;strokeWidth=2;entryPerimeter=0;exitX=0.233;exitY=0.006;exitDx=0;exitDy=0;exitPerimeter=0;" edge="1" parent="1" source="PqrGDrNCjSLYeQYye7V4-24" target="PqrGDrNCjSLYeQYye7V4-14">
          <mxGeometry width="50" height="50" relative="1" as="geometry">
            <mxPoint x="570" y="731" as="sourcePoint" />
            <mxPoint x="570" y="650" as="targetPoint" />
          </mxGeometry>
        </mxCell>
        <mxCell id="PqrGDrNCjSLYeQYye7V4-38" value="&lt;b&gt;1&lt;/b&gt;" style="text;html=1;strokeColor=none;fillColor=none;align=center;verticalAlign=middle;whiteSpace=wrap;rounded=0;fontColor=#46495D;" vertex="1" parent="1">
          <mxGeometry x="570" y="700" width="25" height="30" as="geometry" />
        </mxCell>
        <mxCell id="PqrGDrNCjSLYeQYye7V4-39" value="&lt;b&gt;1&lt;/b&gt;" style="text;html=1;strokeColor=none;fillColor=none;align=center;verticalAlign=middle;whiteSpace=wrap;rounded=0;fontColor=#46495D;" vertex="1" parent="1">
          <mxGeometry x="555" y="630" width="60" height="30" as="geometry" />
        </mxCell>
        <mxCell id="PqrGDrNCjSLYeQYye7V4-40" value="" style="endArrow=none;html=1;rounded=0;strokeColor=#000000;fontColor=#46495D;fillColor=#B2C9AB;strokeWidth=2;exitX=0.252;exitY=-0.004;exitDx=0;exitDy=0;entryX=0.696;entryY=0.998;entryDx=0;entryDy=0;entryPerimeter=0;exitPerimeter=0;" edge="1" parent="1" source="PqrGDrNCjSLYeQYye7V4-14" target="PqrGDrNCjSLYeQYye7V4-4">
          <mxGeometry width="50" height="50" relative="1" as="geometry">
            <mxPoint x="490" y="381" as="sourcePoint" />
            <mxPoint x="490" y="310" as="targetPoint" />
          </mxGeometry>
        </mxCell>
        <mxCell id="PqrGDrNCjSLYeQYye7V4-41" value="" style="endArrow=none;html=1;rounded=0;strokeColor=#000000;fontColor=#46495D;fillColor=#B2C9AB;strokeWidth=2;exitX=0.252;exitY=-0.004;exitDx=0;exitDy=0;exitPerimeter=0;entryX=0.796;entryY=0.999;entryDx=0;entryDy=0;entryPerimeter=0;" edge="1" parent="1" target="PqrGDrNCjSLYeQYye7V4-2">
          <mxGeometry width="50" height="50" relative="1" as="geometry">
            <mxPoint x="210" y="330" as="sourcePoint" />
            <mxPoint x="211" y="230" as="targetPoint" />
          </mxGeometry>
        </mxCell>
        <mxCell id="PqrGDrNCjSLYeQYye7V4-42" value="" style="endArrow=none;html=1;rounded=0;strokeColor=#000000;fontColor=#46495D;fillColor=#B2C9AB;strokeWidth=2;" edge="1" parent="1">
          <mxGeometry width="50" height="50" relative="1" as="geometry">
            <mxPoint x="370" y="330" as="sourcePoint" />
            <mxPoint x="210" y="330" as="targetPoint" />
          </mxGeometry>
        </mxCell>
        <mxCell id="PqrGDrNCjSLYeQYye7V4-43" value="" style="endArrow=none;html=1;rounded=0;strokeColor=#000000;fontColor=#46495D;fillColor=#B2C9AB;strokeWidth=2;exitX=0.75;exitY=0;exitDx=0;exitDy=0;" edge="1" parent="1" source="PqrGDrNCjSLYeQYye7V4-22">
          <mxGeometry width="50" height="50" relative="1" as="geometry">
            <mxPoint x="370" y="440" as="sourcePoint" />
            <mxPoint x="371" y="330" as="targetPoint" />
          </mxGeometry>
        </mxCell>
        <mxCell id="PqrGDrNCjSLYeQYye7V4-44" value="&lt;b&gt;1&lt;/b&gt;" style="text;html=1;strokeColor=none;fillColor=none;align=center;verticalAlign=middle;whiteSpace=wrap;rounded=0;fontColor=#46495D;" vertex="1" parent="1">
          <mxGeometry x="370" y="700" width="30" height="30" as="geometry" />
        </mxCell>
        <mxCell id="PqrGDrNCjSLYeQYye7V4-46" value="&lt;b&gt;&lt;font style=&quot;font-size: 17px;&quot;&gt;*&lt;/font&gt;&lt;/b&gt;" style="text;html=1;strokeColor=none;fillColor=none;align=center;verticalAlign=middle;whiteSpace=wrap;rounded=0;fontColor=#46495D;" vertex="1" parent="1">
          <mxGeometry x="210" y="220" width="20" height="30" as="geometry" />
        </mxCell>
        <mxCell id="PqrGDrNCjSLYeQYye7V4-48" value="&lt;b&gt;1&lt;/b&gt;" style="text;html=1;strokeColor=none;fillColor=none;align=center;verticalAlign=middle;whiteSpace=wrap;rounded=0;fontColor=#46495D;" vertex="1" parent="1">
          <mxGeometry x="250" y="130" width="15" height="30" as="geometry" />
        </mxCell>
        <mxCell id="PqrGDrNCjSLYeQYye7V4-49" value="&lt;b&gt;&lt;font style=&quot;font-size: 17px;&quot;&gt;*&lt;/font&gt;&lt;/b&gt;" style="text;html=1;strokeColor=none;fillColor=none;align=center;verticalAlign=middle;whiteSpace=wrap;rounded=0;fontColor=#46495D;" vertex="1" parent="1">
          <mxGeometry x="290" y="140" width="20" height="30" as="geometry" />
        </mxCell>
        <mxCell id="PqrGDrNCjSLYeQYye7V4-50" value="&lt;b&gt;1&lt;/b&gt;" style="text;html=1;strokeColor=none;fillColor=none;align=center;verticalAlign=middle;whiteSpace=wrap;rounded=0;fontColor=#46495D;" vertex="1" parent="1">
          <mxGeometry x="142.5" y="220" width="15" height="30" as="geometry" />
        </mxCell>
        <mxCell id="PqrGDrNCjSLYeQYye7V4-51" value="&lt;b&gt;&lt;font style=&quot;font-size: 17px;&quot;&gt;*&lt;/font&gt;&lt;/b&gt;" style="text;html=1;strokeColor=none;fillColor=none;align=center;verticalAlign=middle;whiteSpace=wrap;rounded=0;fontColor=#46495D;" vertex="1" parent="1">
          <mxGeometry x="137.5" y="370" width="20" height="30" as="geometry" />
        </mxCell>
        <mxCell id="PqrGDrNCjSLYeQYye7V4-52" value="&lt;b&gt;1&lt;/b&gt;" style="text;html=1;strokeColor=none;fillColor=none;align=center;verticalAlign=middle;whiteSpace=wrap;rounded=0;fontColor=#46495D;" vertex="1" parent="1">
          <mxGeometry x="570" y="130" width="15" height="30" as="geometry" />
        </mxCell>
        <mxCell id="PqrGDrNCjSLYeQYye7V4-53" value="&lt;b&gt;1&lt;/b&gt;" style="text;html=1;strokeColor=none;fillColor=none;align=center;verticalAlign=middle;whiteSpace=wrap;rounded=0;fontColor=#46495D;" vertex="1" parent="1">
          <mxGeometry x="605" y="130" width="15" height="30" as="geometry" />
        </mxCell>
        <mxCell id="PqrGDrNCjSLYeQYye7V4-54" value="&lt;b&gt;1&lt;/b&gt;" style="text;html=1;strokeColor=none;fillColor=none;align=center;verticalAlign=middle;whiteSpace=wrap;rounded=0;fontColor=#46495D;" vertex="1" parent="1">
          <mxGeometry x="490" y="365" width="15" height="30" as="geometry" />
        </mxCell>
        <mxCell id="PqrGDrNCjSLYeQYye7V4-55" value="&lt;b&gt;1&lt;/b&gt;" style="text;html=1;strokeColor=none;fillColor=none;align=center;verticalAlign=middle;whiteSpace=wrap;rounded=0;fontColor=#46495D;" vertex="1" parent="1">
          <mxGeometry x="490" y="290" width="15" height="30" as="geometry" />
        </mxCell>
        <mxCell id="PqrGDrNCjSLYeQYye7V4-56" value="" style="endArrow=none;html=1;rounded=0;strokeColor=#000000;fontColor=#46495D;fillColor=#B2C9AB;exitX=0;exitY=0.638;exitDx=0;exitDy=0;exitPerimeter=0;strokeWidth=2;" edge="1" parent="1" source="PqrGDrNCjSLYeQYye7V4-24">
          <mxGeometry width="50" height="50" relative="1" as="geometry">
            <mxPoint x="220" y="960" as="sourcePoint" />
            <mxPoint x="120" y="920" as="targetPoint" />
          </mxGeometry>
        </mxCell>
        <mxCell id="PqrGDrNCjSLYeQYye7V4-57" value="" style="endArrow=none;html=1;rounded=0;strokeColor=#000000;fontColor=#46495D;fillColor=#B2C9AB;strokeWidth=2;entryX=0.465;entryY=0.996;entryDx=0;entryDy=0;entryPerimeter=0;" edge="1" parent="1" target="PqrGDrNCjSLYeQYye7V4-18">
          <mxGeometry width="50" height="50" relative="1" as="geometry">
            <mxPoint x="120" y="920" as="sourcePoint" />
            <mxPoint x="-260" y="959" as="targetPoint" />
          </mxGeometry>
        </mxCell>
        <mxCell id="PqrGDrNCjSLYeQYye7V4-59" value="&lt;b&gt;1&lt;/b&gt;" style="text;html=1;strokeColor=none;fillColor=none;align=center;verticalAlign=middle;whiteSpace=wrap;rounded=0;fontColor=#46495D;" vertex="1" parent="1">
          <mxGeometry x="120" y="870" width="25" height="30" as="geometry" />
        </mxCell>
        <mxCell id="PqrGDrNCjSLYeQYye7V4-60" value="&lt;b&gt;&lt;font style=&quot;font-size: 17px;&quot;&gt;*&lt;/font&gt;&lt;/b&gt;" style="text;html=1;strokeColor=none;fillColor=none;align=center;verticalAlign=middle;whiteSpace=wrap;rounded=0;fontColor=#46495D;" vertex="1" parent="1">
          <mxGeometry x="480" y="900" width="20" height="30" as="geometry" />
        </mxCell>
        <mxCell id="PqrGDrNCjSLYeQYye7V4-61" value="&lt;b&gt;1&lt;/b&gt;" style="text;html=1;strokeColor=none;fillColor=none;align=center;verticalAlign=middle;whiteSpace=wrap;rounded=0;fontColor=#46495D;" vertex="1" parent="1">
          <mxGeometry x="127.5" y="700" width="30" height="30" as="geometry" />
        </mxCell>
        <mxCell id="PqrGDrNCjSLYeQYye7V4-62" value="&lt;b&gt;1&lt;/b&gt;" style="text;html=1;strokeColor=none;fillColor=none;align=center;verticalAlign=middle;whiteSpace=wrap;rounded=0;fontColor=#46495D;" vertex="1" parent="1">
          <mxGeometry x="127.5" y="650" width="30" height="30" as="geometry" />
        </mxCell>
      </root>
    </mxGraphModel>
  </diagram>
</mxfile>
